# xmcd
#
# Track frame offsets: 
#        180
#        22740
#        45216
#        67714
#        90208
#        112710
#        135209
#        157711
#        180209
#        202702
#        225214
#        247717
#
# Disc length: 3592 seconds
#
# Revision: 4
# Processed by: cddbd v1.5.2PL0 Copyright (c) Steve Scherf et al.
# Submitted via: ExactAudioCopy v1.0b4
#
DISCID=580e060c
DTITLE=2350 Broadway - 2350 Broadway 2 - CD 2 Of 2
DYEAR=1994
DGENRE=Electronic
TTITLE0=Art Of Dream (Part 1)
TTITLE1=Art Of Dream (Part 2)
TTITLE2=Art Of Dream (Part 3)
TTITLE3=Art Of Dream (Part 4)
TTITLE4=Art Of Dream (Part 5)
TTITLE5=Art Of Dream (Part 6)
TTITLE6=Art Of Dream (Part 7)
TTITLE7=Art Of Dream (Part 8)
TTITLE8=Art Of Dream (Part 9)
TTITLE9=Art Of Dream (Part 10)
TTITLE10=Art Of Dream (Part 11)
TTITLE11=Art Of Dream (Part 12)
EXTD=
EXTT0=
EXTT1=
EXTT2=
EXTT3=
EXTT4=
EXTT5=
EXTT6=
EXTT7=
EXTT8=
EXTT9=
EXTT10=
EXTT11=
PLAYORDER=
